# This file uses centimeters as units for non-parametric coordinates.

mtllib MesitadeNoche.mtl
g default
v -14.162338 -1.127649 18.061583
v -13.100537 -1.127649 18.061583
v -14.162338 0.079591 18.061583
v -13.100537 0.079591 18.061583
v -14.162338 0.079591 16.147347
v -13.100537 0.079591 16.147347
v -14.162338 -1.127649 16.147347
v -13.100537 -1.127649 16.147347
v -13.100537 0.079591 17.115592
v -14.162338 0.079591 17.115592
v -14.162338 -1.127649 17.115592
v -13.100537 -1.127649 17.115592
v -13.110380 -1.049107 17.177137
v -13.110380 -1.049107 18.000037
v -13.110380 0.001050 17.177137
v -13.110380 0.001050 18.000037
v -13.100537 -0.455992 17.115592
v -13.110380 -0.464844 17.177137
v -13.110380 -0.464844 18.000037
v -13.100537 -0.455992 18.061583
v -14.162338 -0.455992 18.061583
v -14.162338 -0.455992 17.115592
v -14.162338 -0.455992 16.147347
v -13.100537 -0.455992 16.147347
v -13.115278 -0.313096 17.021073
v -13.115278 -0.063305 17.021073
v -13.115278 -0.313096 16.241861
v -13.115278 -0.063305 16.241861
v -13.108404 -0.623936 16.205946
v -13.108404 -0.623936 17.056991
v -13.108404 -0.959705 17.056991
v -13.108404 -0.959705 16.205946
v -13.169185 -1.049107 17.177137
v -13.169185 -1.049107 18.000037
v -13.169185 -0.464844 17.177137
v -13.169185 -0.464844 18.000037
v -13.169185 0.001050 17.177137
v -13.169185 0.001050 18.000037
v -13.153671 -0.623936 16.205946
v -13.153671 -0.623936 17.056991
v -13.153671 -0.959705 17.056991
v -13.153671 -0.959705 16.205946
vt 0.885017 0.015120
vt 0.638246 0.121847
vt 0.885017 0.100925
vt 0.829638 0.121837
vt 0.829645 0.242905
vt 0.864382 0.205305
vt 0.982151 0.205305
vt 0.864382 0.323074
vt 0.982151 0.323074
vt 0.022250 0.381455
vt 0.495889 0.381518
vt 0.748961 0.015120
vt 0.748961 0.100925
vt 0.020152 0.356815
vt 0.465070 0.420838
vt 0.817780 0.100925
vt 0.021016 0.026877
vt 0.817780 0.015120
vt 0.864382 0.264874
vt 0.982151 0.264874
vt 0.053059 0.420783
vt 0.116460 0.495909
vt 0.394939 0.496933
vt 0.409984 0.695700
vt 0.107242 0.704879
vt 0.495845 0.717804
vt 0.916976 0.601565
vt 0.567473 0.600915
vt 0.885017 0.062858
vt 0.817780 0.062858
vt 0.748961 0.062858
vt 0.638252 0.242915
vt 0.285718 0.356088
vt 0.465031 0.713368
vt 0.568242 0.496750
vt 0.917747 0.497394
vt 0.400771 0.861798
vt 0.122148 0.862488
vt 0.856006 0.807182
vt 0.855891 0.889523
vt 0.622171 0.889383
vt 0.622293 0.807046
vt 0.105487 0.480428
vt 0.405248 0.480579
vt 0.431369 0.695608
vt 0.085852 0.705279
vt 0.410579 0.878177
vt 0.113241 0.879721
vt 0.928601 0.612084
vt 0.556788 0.612038
vt 0.556595 0.486242
vt 0.928437 0.486275
vt 0.495809 0.985961
vt 0.022169 0.985897
vt 0.052989 0.946578
vt 0.465000 0.946632
vt 0.022205 0.717741
vt 0.053020 0.713313
vt 0.543160 0.789356
vt 0.543143 0.914422
vt 0.980628 0.717869
vt 0.933296 0.789408
vt 0.980592 0.986025
vt 0.933280 0.914474
vt 0.525197 0.633722
vt 0.951299 0.633779
vt 0.525219 0.465609
vt 0.980673 0.381583
vt 0.951322 0.465666
vt 0.314177 0.026696
vt 0.314408 0.356832
vt 0.614598 0.026512
vt 0.615952 0.356849
vt 0.285648 0.030418
vt 0.617600 0.030390
vt 0.617670 0.356061
vt 0.829650 0.339445
vt 0.638257 0.339455
vt 0.020948 0.030440
vt 0.021018 0.356110
vn 0.000000 0.000000 1.000000
vn 0.000000 0.000000 1.000000
vn 0.000000 0.000000 1.000000
vn 0.000000 0.000000 1.000000
vn 0.000000 1.000000 0.000000
vn 0.000000 1.000000 0.000000
vn 0.000000 1.000000 0.000000
vn 0.000000 1.000000 0.000000
vn 0.000000 0.000000 -1.000000
vn 0.000000 0.000000 -1.000000
vn 0.000000 0.000000 -1.000000
vn 0.000000 0.000000 -1.000000
vn 0.000000 -1.000000 0.000000
vn 0.000000 -1.000000 0.000000
vn 0.000000 -1.000000 0.000000
vn 0.000000 -1.000000 0.000000
vn 1.000000 0.000000 0.000000
vn 1.000000 0.000000 0.000000
vn 1.000000 0.000000 0.000000
vn 1.000000 0.000000 0.000000
vn -1.000000 0.000000 0.000000
vn -1.000000 0.000000 0.000000
vn -1.000000 0.000000 0.000000
vn -1.000000 0.000000 0.000000
vn 0.000000 1.000000 0.000000
vn 0.000000 1.000000 0.000000
vn -1.000000 0.000000 0.000000
vn -1.000000 0.000000 0.000000
vn 0.000000 -1.000000 0.000000
vn 0.000000 -1.000000 0.000000
vn 1.000000 0.000000 0.000000
vn 1.000000 0.000000 0.000000
vn 1.000000 0.000000 0.000000
vn 1.000000 0.000000 0.000000
vn 0.992239 0.124349 0.000000
vn 0.992239 0.124349 0.000000
vn 0.992239 0.124349 0.000000
vn 0.992239 0.124349 0.000000
vn 0.987450 0.000000 0.157931
vn 0.987450 0.000000 0.157929
vn 0.987450 0.000000 0.157929
vn 0.987450 0.000000 0.157931
vn 0.992238 -0.124354 0.000000
vn 0.992238 -0.124354 0.000000
vn 0.992238 -0.124354 0.000000
vn 0.992238 -0.124354 0.000000
vn 0.987451 0.000000 -0.157926
vn 0.987451 0.000000 -0.157924
vn 0.987451 0.000000 -0.157924
vn 0.987451 0.000000 -0.157925
vn 0.987451 0.000000 0.157926
vn 0.987451 0.000000 0.157926
vn 1.000000 0.000000 0.000000
vn 1.000000 0.000000 0.000000
vn 0.987451 0.000000 -0.157927
vn 0.987451 0.000000 -0.157927
vn 0.000000 0.000000 1.000000
vn 0.000000 0.000000 1.000000
vn -1.000000 0.000000 0.000000
vn -1.000000 0.000000 0.000000
vn -1.000000 0.000000 0.000000
vn 0.000000 0.000000 -1.000000
vn 0.000000 0.000000 -1.000000
vn 1.000000 0.000000 0.000000
vn 1.000000 0.000000 0.000000
vn 1.000000 0.000000 0.000000
vn 1.000000 0.000000 0.000000
vn 0.988055 0.000000 -0.154102
vn 0.988055 0.000000 -0.154102
vn 0.988055 0.000000 -0.154102
vn 0.988055 0.000000 -0.154102
vn 0.994721 0.102620 0.000000
vn 0.994721 0.102620 0.000000
vn 0.994721 0.102620 0.000000
vn 0.994721 0.102620 0.000000
vn 0.988054 0.000000 0.154107
vn 0.988054 0.000000 0.154107
vn 0.988054 0.000000 0.154107
vn 0.988054 0.000000 0.154107
vn 0.994722 -0.102609 0.000000
vn 0.994722 -0.102609 0.000000
vn 0.994722 -0.102609 0.000000
vn 0.994722 -0.102609 0.000000
vn 0.998905 -0.046792 0.000000
vn 0.998905 -0.046792 0.000000
vn 0.998905 -0.046792 0.000000
vn 0.998905 -0.046792 0.000000
vn 0.991108 0.000000 -0.133060
vn 0.991108 0.000000 -0.133060
vn 0.991108 0.000000 -0.133060
vn 0.991108 0.000000 -0.133060
vn 0.998904 0.046796 0.000000
vn 0.998904 0.046796 0.000000
vn 0.998904 0.046796 0.000000
vn 0.998904 0.046796 0.000000
vn 0.991107 0.000000 0.133065
vn 0.991107 0.000000 0.133065
vn 0.991107 0.000000 0.133065
vn 0.991107 0.000000 0.133065
vn 0.000000 1.000000 0.000000
vn 0.000000 1.000000 0.000000
vn 0.000000 1.000000 0.000000
vn 0.000000 1.000000 0.000000
vn 0.000000 0.000000 1.000000
vn 0.000000 0.000000 1.000000
vn 0.000000 0.000000 1.000000
vn 0.000000 0.000000 1.000000
vn 0.000000 0.000000 -1.000000
vn 0.000000 0.000000 -1.000000
vn 0.000000 0.000000 -1.000000
vn 0.000000 0.000000 -1.000000
vn 0.000000 0.000000 1.000000
vn 0.000000 0.000000 1.000000
vn 0.000000 -1.000000 0.000000
vn 0.000000 -1.000000 0.000000
vn 0.000000 -1.000000 0.000000
vn 0.000000 -1.000000 0.000000
vn 0.000000 0.000000 -1.000000
vn 0.000000 0.000000 -1.000000
vn 0.000000 -1.000000 0.000000
vn 0.000000 -1.000000 0.000000
vn 0.000000 -1.000000 0.000000
vn 0.000000 -1.000000 0.000000
vn 0.000000 0.000000 -1.000000
vn 0.000000 0.000000 -1.000000
vn 0.000000 0.000000 -1.000000
vn 0.000000 0.000000 -1.000000
vn 0.000000 1.000000 0.000000
vn 0.000000 1.000000 0.000000
vn 0.000000 1.000000 0.000000
vn 0.000000 1.000000 0.000000
vn 0.000000 0.000000 1.000000
vn 0.000000 0.000000 1.000000
vn 0.000000 0.000000 1.000000
vn 0.000000 0.000000 1.000000
s 1
g Mesitadenoche Habitación_Principal Escena_FInal
usemtl aiStandardSurface3SG
f 1/2/1 2/4/2 20/5/3 21/32/4
s 2
f 3/14/5 4/17/6 9/70/7 10/71/8
s 3
f 23/33/9 24/74/10 8/75/11 7/76/12
s 4
f 11/19/13 12/20/14 2/9/15 1/8/16
s 5
f 34/22/17 33/23/18 35/24/19 36/25/20
s 6
f 11/18/21 1/1/22 21/29/23 22/30/24
s 2
f 10/71/8 9/70/7 6/72/25 5/73/26
s 6
f 7/12/27 11/18/21 22/30/24 23/31/28
s 4
f 7/6/29 8/7/30 12/20/14 11/19/13
s off
f 39/27/31 40/28/32 41/35/33 42/36/34
f 2/10/35 12/11/36 13/15/37 14/21/38
s 7
f 12/11/39 17/26/40 18/34/41 13/15/42
s off
f 9/53/43 4/54/44 16/55/45 15/56/46
s 8
f 20/57/47 2/10/48 14/21/49 19/58/50
s 7
f 17/26/40 9/53/51 15/56/52 18/34/41
s 5
f 36/25/20 35/24/19 37/37/53 38/38/54
s 8
f 4/54/55 20/57/47 19/58/50 16/55/56
s 1
f 21/32/4 20/5/3 4/77/57 3/78/58
s 6
f 22/30/24 21/29/23 3/3/59 10/16/60
f 23/31/28 22/30/24 10/16/60 5/13/61
s 3
f 5/80/62 6/79/63 24/74/10 23/33/9
s off
f 26/39/64 25/40/65 27/41/66 28/42/67
f 9/53/68 17/26/69 25/59/70 26/60/71
f 17/26/72 24/61/73 27/62/74 25/59/75
f 24/61/76 6/63/77 28/64/78 27/62/79
f 6/63/80 9/53/81 26/60/82 28/64/83
f 24/61/84 17/26/85 30/65/86 29/66/87
f 17/26/88 12/11/89 31/67/90 30/65/91
f 12/11/92 8/68/93 32/69/94 31/67/95
f 8/68/96 24/61/97 29/66/98 32/69/99
f 14/43/100 13/44/101 33/23/102 34/22/103
s 9
f 13/44/104 18/45/105 35/24/106 33/23/107
s 10
f 19/46/108 14/43/109 34/22/110 36/25/111
s 9
f 18/45/105 15/47/112 37/37/113 35/24/106
s off
f 15/47/114 16/48/115 38/38/116 37/37/117
s 10
f 16/48/118 19/46/108 36/25/111 38/38/119
s off
f 29/49/120 30/50/121 40/28/122 39/27/123
f 30/50/124 31/51/125 41/35/126 40/28/127
f 31/51/128 32/52/129 42/36/130 41/35/131
f 32/52/132 29/49/133 39/27/134 42/36/135
