# This file uses centimeters as units for non-parametric coordinates.

mtllib pasilllo.mtl
g default
v -3.220980 -1.123935 -16.696954
v -3.220980 -1.123934 -3.384212
v 5.556800 -1.123934 -3.384213
v 5.556800 -1.123935 -16.696955
v -3.220979 -1.123937 -2.676291
v 5.556800 -1.123934 -2.676293
v -3.220979 -1.123937 3.455297
v 5.556801 -1.123934 3.455296
v -3.220980 -1.123934 4.240540
v 5.556803 -1.123934 4.240539
v -3.220982 -1.123937 10.395585
v -3.220982 -1.123937 19.794661
v 5.556803 -1.123937 19.794661
v 5.556803 -1.123937 10.395585
v -3.220980 -1.123934 9.529784
v 5.556803 -1.123934 9.529784
vt 0.694154 0.043243
vt 0.694233 0.379483
vt 0.300387 0.379513
vt 0.300308 0.043272
vt 0.694238 0.397363
vt 0.300391 0.397393
vt 0.694274 0.552229
vt 0.300427 0.552258
vt 0.694279 0.572062
vt 0.300432 0.572091
vt 0.300469 0.727549
vt 0.694315 0.727520
vt 0.694371 0.964913
vt 0.300524 0.964942
vt 0.694310 0.705653
vt 0.300463 0.705682
vn -0.000000 1.000000 -0.000000
vn -0.000000 1.000000 0.000000
vn -0.000000 1.000000 0.000000
vn -0.000000 1.000000 -0.000000
vn -0.000000 1.000000 0.000000
vn -0.000000 1.000000 0.000000
vn -0.000000 1.000000 -0.000000
vn -0.000000 1.000000 -0.000000
vn -0.000000 1.000000 -0.000000
vn -0.000000 1.000000 -0.000000
vn 0.000000 1.000000 0.000000
vn 0.000000 1.000000 0.000000
vn 0.000000 1.000000 0.000000
vn 0.000000 1.000000 0.000000
vn 0.000000 1.000000 0.000000
vn 0.000000 1.000000 0.000000
s 1
g suelo_pasillo Pasillo Escena_FInal
usemtl aiStandardSurface18SG
f 1/1/1 2/2/2 3/3/3 4/4/4
f 3/3/3 2/2/2 5/5/5 6/6/6
f 6/6/6 5/5/5 7/7/7 8/8/8
f 8/8/8 7/7/7 9/9/9 10/10/10
f 14/11/11 11/12/12 12/13/13 13/14/14
f 10/10/10 9/9/9 15/15/15 16/16/16
f 16/16/16 15/15/15 11/12/12 14/11/11
