# This file uses centimeters as units for non-parametric coordinates.

mtllib habitacion.mtl
g default
v -14.491882 0.200752 7.717656
v -4.146362 0.200752 7.717656
v -14.491882 0.200752 -7.342495
v -14.491882 0.200752 -2.221233
v -14.491882 0.198761 -1.382930
v -4.146362 0.200752 -1.382930
v -8.523834 0.198761 -1.382930
v -8.018280 0.200752 7.717656
v -8.018280 0.200752 -7.342495
v -8.523834 0.200752 -2.221233
v -8.018280 6.171524 7.717656
v -4.146362 6.171524 7.717656
v -4.146362 6.171524 -1.382930
v -4.146362 6.171524 -2.219097
v -4.146362 0.200752 -2.202083
v -4.146362 0.200752 -7.323352
v -14.491882 6.915787 -1.382930
v -14.491882 6.917786 7.717656
v -14.491882 6.917786 -7.342495
v -14.491882 6.917786 -2.221233
v -8.523834 6.915787 -1.382930
v -8.523834 6.917786 -2.221233
v -4.146362 4.793747 -3.660396
v -4.146362 0.196014 -3.643383
v -4.146362 6.917786 -2.221233
v -4.146362 6.917786 -7.342495
v -4.146362 5.368393 -5.901203
v -4.146362 5.368393 -3.662517
v -4.146362 0.196014 -5.882068
v -9.986816 1.463531 7.717656
v -9.986816 3.892395 7.717656
v -11.837738 1.463531 7.717656
v -11.837738 4.195969 7.717656
v -8.018280 6.917786 7.717656
v -9.986816 4.195969 7.717656
v -4.146362 6.917786 7.717656
v -4.146362 6.917786 -1.382930
v -8.018280 6.917786 -7.342495
vt 0.353836 0.085923
vt 0.514077 0.085923
vt 0.514077 0.344649
vt 0.332913 0.344649
vt 0.332913 0.368482
vt 0.514077 0.367937
vt 0.514077 0.513533
vt 0.353836 0.514077
vt 0.543990 0.708629
vt 0.612303 0.708581
vt 0.612346 0.888784
vt 0.544033 0.888831
vt 0.726517 0.708501
vt 0.887080 0.708329
vt 0.887128 0.911054
vt 0.726566 0.911226
vt 0.383427 0.708742
vt 0.383470 0.888944
vt 0.735610 0.212160
vt 0.735689 0.388023
vt 0.655484 0.388323
vt 0.655405 0.212460
vt 0.986237 0.389686
vt 0.874268 0.389993
vt 0.874025 0.210425
vt 0.985994 0.210117
vt 0.085923 0.085923
vt 0.085923 0.344649
vt 0.085923 0.368482
vt 0.085923 0.514077
vt 0.858297 0.210415
vt 0.858540 0.389983
vt 0.746571 0.390291
vt 0.746328 0.210722
vt 0.368718 0.888954
vt 0.368975 0.708752
vt 0.343279 0.847390
vt 0.343546 0.708627
vt 0.368686 0.911477
vt 0.278331 0.911540
vt 0.303748 0.864761
vt 0.343246 0.864733
vt 0.278620 0.708815
vt 0.304048 0.708654
vt 0.647043 0.746669
vt 0.647060 0.819973
vt 0.679699 0.746646
vt 0.679719 0.829113
vt 0.612351 0.911306
vt 0.647063 0.829136
vt 0.544038 0.911354
vt 0.383476 0.911467
vt 0.210307 0.708531
vt 0.210018 0.911256
vt 0.095804 0.910780
vt 0.096092 0.708056
vn -0.000100 1.000000 -0.000171
vn -0.000241 1.000000 -0.000103
vn -0.000241 1.000000 -0.000103
vn -0.000092 1.000000 -0.000174
vn 0.000000 1.000000 -0.000000
vn 0.000000 1.000000 -0.000000
vn 0.000000 1.000000 -0.000000
vn 0.000000 1.000000 -0.000000
vn 0.000000 0.000000 -1.000000
vn 0.000000 0.000000 -1.000000
vn -0.000000 0.000000 -1.000000
vn 0.000000 0.000000 -1.000000
vn 1.000000 0.000000 0.000000
vn 1.000000 0.000000 0.000000
vn 1.000000 0.000000 0.000000
vn 1.000000 0.000000 0.000000
vn -1.000000 0.000000 0.000000
vn -1.000000 0.000000 0.000000
vn -1.000000 0.000000 0.000000
vn -1.000000 0.000000 0.000000
vn 1.000000 0.000000 0.000000
vn 1.000000 0.000000 0.000000
vn 1.000000 0.000000 0.000000
vn 1.000000 0.000000 0.000000
vn 0.000000 0.000000 1.000000
vn 0.000000 0.000000 1.000000
vn 0.000000 0.000000 1.000000
vn 0.000000 0.000000 1.000000
vn 0.000000 1.000000 -0.000219
vn 0.000000 1.000000 -0.000219
vn 0.000000 1.000000 0.000000
vn 0.000000 1.000000 0.000000
vn 0.000000 0.000000 -1.000000
vn 0.000000 0.000000 -1.000000
vn 0.000000 0.000000 -1.000000
vn 0.000000 0.000000 -1.000000
vn -0.000230 0.999999 0.001201
vn -0.000230 0.999999 0.001201
vn -0.000230 0.999999 0.001201
vn -0.000230 0.999999 0.001201
vn 1.000000 0.000000 0.000000
vn 1.000000 0.000000 0.000000
vn 1.000000 0.000000 0.000000
vn 1.000000 0.000000 0.000000
vn -1.000000 -0.000000 0.000000
vn -1.000000 -0.000000 0.000000
vn -1.000000 -0.000000 0.000000
vn -1.000000 -0.000000 0.000000
vn -1.000000 -0.000000 0.000000
vn -1.000000 0.000000 0.000000
vn -1.000000 0.000000 0.000000
vn -1.000000 0.000000 0.000000
vn -1.000000 0.000000 0.000000
vn -1.000000 0.000000 0.000000
vn -1.000000 0.000000 0.000000
vn -1.000000 0.000000 0.000000
vn 0.000000 0.000000 -1.000000
vn 0.000000 0.000000 -1.000000
vn 0.000000 0.000000 -1.000000
vn 0.000000 0.000000 -1.000000
vn 0.000000 0.000000 -1.000000
vn 0.000000 0.000000 -1.000000
vn -0.000000 0.000000 -1.000000
vn -0.000000 0.000000 -1.000000
vn 0.000000 0.000000 -1.000000
vn -1.000000 0.000000 0.000000
vn -1.000000 0.000000 0.000000
vn -1.000000 0.000000 0.000000
vn -0.000925 0.000533 1.000000
vn -0.000925 0.000533 1.000000
vn -0.000925 0.000533 0.999999
vn -0.000925 0.000533 0.999999
vn -0.000925 0.000533 0.999999
vn -0.000925 0.000533 0.999999
s 1
g polySurface20 Recinto group1
usemtl lambert28SG
f 8/1/1 2/2/2 6/3/3 7/4/4
s 2
f 10/5/5 15/6/6 16/7/7 9/8/8
s 3
usemtl lambert31SG
f 2/9/9 8/10/10 11/11/11 12/12/12
s off
f 1/13/13 5/14/14 17/15/15 18/16/16
s 4
f 6/17/17 2/9/18 12/12/19 13/18/20
s off
f 4/19/21 3/20/22 19/21/23 20/22/24
f 5/23/25 7/24/26 21/25/27 17/26/28
s 1
usemtl lambert28SG
f 1/27/29 8/1/1 7/4/4 5/28/30
s 2
f 4/29/31 10/5/5 9/8/8 3/30/32
s off
usemtl lambert31SG
f 22/31/33 10/32/34 4/33/35 20/34/36
usemtl lambert28SG
f 15/6/37 10/5/38 7/4/39 6/3/40
usemtl lambert31SG
f 21/25/41 7/24/42 10/32/43 22/31/44
s 5
f 6/17/45 13/18/46 14/35/47 15/36/48
f 15/36/48 14/35/47 23/37/49 24/38/50
f 25/39/51 26/40/52 27/41/53 28/42/54
f 26/40/52 16/43/55 29/44/56 27/41/53
s 3
f 11/11/11 8/10/10 30/45/57 31/46/58
f 8/10/10 1/13/59 32/47/60 30/45/57
f 1/13/59 18/16/61 33/48/62 32/47/60
f 18/16/61 34/49/63 35/50/64 33/48/62
f 34/49/63 11/11/11 31/46/58 35/50/64
f 12/12/12 11/11/11 34/49/63 36/51/65
s 4
f 13/18/20 12/12/19 36/51/66 37/52/67
s 5
f 14/35/47 13/18/46 37/52/68 25/39/51
f 23/37/49 14/35/47 25/39/51 28/42/54
s off
f 9/53/69 16/43/70 26/40/71 38/54/72 19/55/73 3/56/74
